<svg xmlns="http://www.w3.org/2000/svg" width="363.689208984375" height="365.91510009765625" viewBox="-89.74054718017578 -77.66099548339844 363.689208984375 365.91510009765625"><title>Neo4j Graph Visualization</title><desc>Created using Neo4j (http://www.neo4j.com/)</desc><g class="layer relationships"><g class="relationship" transform="translate(134.9954200120235 259.254124046733) rotate(330.5496718466986)"><path class="outline" fill="#A5ABB6" stroke="none" d="M 21.40063509461097,12.933012701892217 L 21.90063509461097,12.06698729810778 A 57.57249549982361 57.57249549982361 0 0 0 24.239651661971326,13.34614604410622 L 23.780278988389156,14.234389674404781 A 58.57249549982361 58.57249549982361 0 0 1 21.40063509461097,12.933012701892217 Z M 74.26931713319888,15.823096121054334 L 73.8666975403774,14.907728728431962 A 57.57249549982361 57.57249549982361 0 0 0 76.28150814021477,13.77815563794005 L 74.94781789072209,11.090913498048641 L 82.77402150821017,11.114085412439026 L 78.05976180620502,17.361145157795256 L 76.72607155671234,14.67390301790385 A 58.57249549982361 58.57249549982361 0 0 1 74.26931713319888,15.823096121054334"/><text text-anchor="middle" pointer-events="none" font-size="8px" fill="#000000" x="48.860456547110545" y="23.25151074803886" font-family="sans-serif">PRODUCED</text></g><g class="relationship" transform="translate(134.9954200120235 259.254124046733) rotate(330.5496718466986)"><path class="outline" fill="#A5ABB6" stroke="none" d="M 25 0.5 L 25.638540503652628 0.5 L 25.638540503652628 -0.5 L 25 -0.5 Z M 72.52916550365262 0.5 L 73.16770600730526 0.5 L 73.16770600730526 3.5 L 80.16770600730526 0 L 73.16770600730526 -3.5 L 73.16770600730526 -0.5 L 72.52916550365262 -0.5 Z"/><text text-anchor="middle" pointer-events="none" font-size="8px" fill="#000000" x="49.08385300365263" y="3" font-family="sans-serif">DIRECTED</text></g><g class="relationship" transform="translate(134.9954200120235 259.254124046733) rotate(330.5496718466986)"><path class="outline" fill="#A5ABB6" stroke="none" d="M 21.40063509461097,-12.933012701892217 L 21.90063509461097,-12.06698729810778 A 57.57249549982361 57.57249549982361 0 0 1 31.51636423970093,-16.494790474991667 L 31.183383735062556,-17.4377241860927 A 58.57249549982361 58.57249549982361 0 0 0 21.40063509461097,-12.933012701892217 Z M 66.67946281711001,-18.55465672710664 L 66.40642374243654,-17.592653783399363 A 57.57249549982361 57.57249549982361 0 0 1 76.28150814021477,-13.77815563794005 L 74.94781789072209,-11.090913498048641 L 82.77402150821017,-11.114085412439026 L 78.05976180620502,-17.361145157795256 L 76.72607155671234,-14.67390301790385 A 58.57249549982361 58.57249549982361 0 0 0 66.67946281711001,-18.55465672710664"/><text text-anchor="middle" pointer-events="none" font-size="8px" fill="#000000" x="48.86045654711053" y="-17.251510748038854" font-family="sans-serif">WROTE</text></g><g class="relationship" transform="translate(244.94868476581462 16.11468286493473) rotate(199.74258903676485)"><path class="outline" fill="#A5ABB6" stroke="none" d="M 24.018736134675446,6.953439040707552 L 24.277555179777966,5.987513214418485 A 99.4707569464931 99.4707569464931 0 0 0 25.326849949256086,6.262547635377075 L 25.07857968051447,7.231238439327939 A 100.4707569464931 100.4707569464931 0 0 1 24.018736134675446,6.953439040707552 Z M 71.76667062732521,7.995707561270109 L 71.55024756274523,7.0194078853929796 A 99.4707569464931 99.4707569464931 0 0 0 72.6079842304151,6.778873921403075 L 71.92681410317047,3.857229306165018 L 79.53868335384468,5.67641772703861 L 73.51621106674128,10.674400075053818 L 72.83504093949665,7.75275545981576 A 100.4707569464931 100.4707569464931 0 0 1 71.76667062732521,7.995707561270109"/><text text-anchor="middle" pointer-events="none" font-size="8px" fill="#000000" x="48.385783319849494" y="12.863498345147264" transform="rotate(180 48.385783319849494 9.863498345147264)" font-family="sans-serif">DIRECTED</text></g><g class="relationship" transform="translate(244.94868476581462 16.11468286493473) rotate(199.74258903676485)"><path class="outline" fill="#A5ABB6" stroke="none" d="M 24.018736134675446,-6.953439040707552 L 24.277555179777966,-5.987513214418485 A 99.4707569464931 99.4707569464931 0 0 1 30.71988247174721,-7.486062018932188 L 30.525829469346412,-8.467053064895012 A 100.4707569464931 100.4707569464931 0 0 0 24.018736134675446,-6.953439040707552 Z M 66.28188142291037,-9.052521373552153 L 66.12004925991317,-8.06570307669115 A 99.4707569464931 99.4707569464931 0 0 1 72.6079842304151,-6.778873921403075 L 71.92681410317047,-3.857229306165018 L 79.53868335384468,-5.67641772703861 L 73.51621106674128,-10.674400075053818 L 72.83504093949665,-7.75275545981576 A 100.4707569464931 100.4707569464931 0 0 0 66.28188142291037,-9.052521373552153"/><text text-anchor="middle" pointer-events="none" font-size="8px" fill="#000000" x="48.385783319849466" y="-6.8634983451472635" transform="rotate(180 48.385783319849466 -9.863498345147264)" font-family="sans-serif">WROTE</text></g><g class="relationship" transform="translate(47.6768458383666 -48.66099013999883) rotate(376.6124705127482)"><path class="outline" fill="#A5ABB6" stroke="none" d="M 24.018736134675446,6.953439040707552 L 24.277555179777966,5.987513214418485 A 99.35155037300477 99.35155037300477 0 0 0 25.297800171341358,6.2550907387244905 L 25.049250165702567,7.223709804558396 A 100.35155037300477 100.35155037300477 0 0 1 24.018736134675446,6.953439040707552 Z M 71.73658551174798,7.988577890631703 L 71.51989770917643,7.012336938706056 A 99.35155037300477 99.35155037300477 0 0 0 72.54836016176495,6.778322926434272 L 71.86724150281184,3.856666312041347 L 79.47907870517395,5.6759888246091865 L 73.45651837370242,10.673865078958173 L 72.77539971474931,7.752208464565247 A 100.35155037300477 100.35155037300477 0 0 1 71.73658551174798,7.988577890631703"/><text text-anchor="middle" pointer-events="none" font-size="8px" fill="#000000" x="48.35600262790951" y="12.859438053623705" font-family="sans-serif">DIRECTED</text></g><g class="relationship" transform="translate(47.6768458383666 -48.66099013999883) rotate(376.6124705127482)"><path class="outline" fill="#A5ABB6" stroke="none" d="M 24.018736134675446,-6.953439040707552 L 24.277555179777966,-5.987513214418485 A 99.35155037300477 99.35155037300477 0 0 1 30.690485767461837,-7.479975808500569 L 30.49621458863425,-8.46092367106867 A 100.35155037300477 100.35155037300477 0 0 0 24.018736134675446,-6.953439040707552 Z M 66.25201706933711,-9.046702919482073 L 66.08998281643197,-8.059917785379682 A 99.35155037300477 99.35155037300477 0 0 1 72.54836016176495,-6.778322926434272 L 71.86724150281184,-3.856666312041347 L 79.47907870517395,-5.6759888246091865 L 73.45651837370242,-10.673865078958173 L 72.77539971474931,-7.752208464565247 A 100.35155037300477 100.35155037300477 0 0 0 66.25201706933711,-9.046702919482073"/><text text-anchor="middle" pointer-events="none" font-size="8px" fill="#000000" x="48.35600262790952" y="-6.859438053623705" font-family="sans-serif">WROTE</text></g><g class="relationship" transform="translate(-60.74054899464914 94.51860399308117) rotate(432.440257683323)"><path class="outline" fill="#A5ABB6" stroke="none" d="M 21.40063509461097,12.933012701892217 L 21.90063509461097,12.06698729810778 A 57.152895106788485 57.152895106788485 0 0 0 31.31933823231731,16.417523175395715 L 30.984136588028036,17.35966958528421 A 58.152895106788485 58.152895106788485 0 0 1 21.40063509461097,12.933012701892217 Z M 66.47404101268104,18.480488206918892 L 66.19895654207473,17.519068145743113 A 57.152895106788485 57.152895106788485 0 0 0 75.87340801028375,13.771519613025049 L 74.54033510217509,11.083971172221288 L 82.36653319017731,11.108940900905475 L 77.65083855442863,17.35491753409673 L 76.31776564631997,14.667369093292969 A 58.152895106788485 58.152895106788485 0 0 1 66.47404101268104,18.480488206918892"/><text text-anchor="middle" pointer-events="none" font-size="8px" fill="#000000" x="48.65723446968021" y="23.195293885311912" font-family="sans-serif">WROTE</text></g><g class="relationship" transform="translate(-60.74054899464914 94.51860399308117) rotate(432.440257683323)"><path class="outline" fill="#A5ABB6" stroke="none" d="M 25 0.5 L 25.436072598437654 0.5 L 25.436072598437654 -0.5 L 25 -0.5 Z M 72.32669759843765 0.5 L 72.76277019687531 0.5 L 72.76277019687531 3.5 L 79.76277019687531 0 L 72.76277019687531 -3.5 L 72.76277019687531 -0.5 L 72.32669759843765 -0.5 Z"/><text text-anchor="middle" pointer-events="none" font-size="8px" fill="#000000" x="48.881385098437654" y="3" font-family="sans-serif">DIRECTED</text></g><g class="relationship" transform="translate(-60.74054899464914 94.51860399308117) rotate(432.440257683323)"><path class="outline" fill="#A5ABB6" stroke="none" d="M 21.40063509461097,-12.933012701892217 L 21.90063509461097,-12.06698729810778 A 57.152895106788485 57.152895106788485 0 0 1 24.052197928431745,-13.24833106552397 L 23.589843665009056,-14.135026354275901 A 58.152895106788485 58.152895106788485 0 0 0 21.40063509461097,-12.933012701892217 Z M 74.0570729263736,-15.72884891467568 L 73.65159027181157,-14.814746176002764 A 57.152895106788485 57.152895106788485 0 0 1 75.87340801028375,-13.771519613025049 L 74.54033510217509,-11.083971172221288 L 82.36653319017731,-11.108940900905475 L 77.65083855442863,-17.35491753409673 L 76.31776564631997,-14.667369093292969 A 58.152895106788485 58.152895106788485 0 0 0 74.0570729263736,-15.72884891467568"/><text text-anchor="middle" pointer-events="none" font-size="8px" fill="#000000" x="48.657234469680226" y="-17.195293885311912" font-family="sans-serif">PRODUCED</text></g></g><g class="layer nodes"><g class="node" transform="translate(134.9954200120235,259.254124046733)"><circle class="outline" cx="0" cy="0" r="25" fill="#57C7E3" stroke="#23b3d7" stroke-width="2px"/><text text-anchor="middle" pointer-events="none" font-family="sans-serif" dy="1.5625" font-size="25" fill="#2A2C34"/><text text-anchor="middle" pointer-events="none" font-family="sans-serif" dy="1.5625" font-size="25" fill="#2A2C34"/><text text-anchor="middle" pointer-events="none" x="0" y="0" font-size="10px" fill="#2A2C34" font-family="sans-serif"> Cameron</text><text text-anchor="middle" pointer-events="none" x="0" y="10" font-size="10px" fill="#2A2C34" font-family="sans-serif"> Crowe</text></g><g class="node" transform="translate(226.57359369062482,207.54644093744142)"><circle class="outline" cx="0" cy="0" r="25" fill="#F79767" stroke="#f36924" stroke-width="2px"/><text text-anchor="middle" pointer-events="none" font-family="sans-serif" dy="1.5625" font-size="25" fill="#FFFFFF"/><text text-anchor="middle" pointer-events="none" font-family="sans-serif" dy="1.5625" font-size="25" fill="#FFFFFF"/><text text-anchor="middle" pointer-events="none" x="0" y="0" font-size="10px" fill="#FFFFFF" font-family="sans-serif"> Jerry</text><text text-anchor="middle" pointer-events="none" x="0" y="10" font-size="10px" fill="#FFFFFF" font-family="sans-serif"> Maguire</text></g><g class="node" transform="translate(244.94868476581462,16.11468286493473)"><circle class="outline" cx="0" cy="0" r="25" fill="#57C7E3" stroke="#23b3d7" stroke-width="2px"/><text text-anchor="middle" pointer-events="none" font-family="sans-serif" dy="1.5625" font-size="25" fill="#2A2C34"/><text text-anchor="middle" pointer-events="none" font-family="sans-serif" dy="1.5625" font-size="25" fill="#2A2C34"/><text text-anchor="middle" pointer-events="none" x="0" y="0" font-size="10px" fill="#2A2C34" font-family="sans-serif"> Lana</text><text text-anchor="middle" pointer-events="none" x="0" y="10" font-size="10px" fill="#2A2C34" font-family="sans-serif"> Wacho…</text></g><g class="node" transform="translate(147.16939523945933,-18.97739225995083)"><circle class="outline" cx="0" cy="0" r="25" fill="#F79767" stroke="#f36924" stroke-width="2px"/><text text-anchor="middle" pointer-events="none" font-family="sans-serif" dy="1.5625" font-size="25" fill="#FFFFFF"/><text text-anchor="middle" pointer-events="none" font-family="sans-serif" dy="1.5625" font-size="25" fill="#FFFFFF"/><text text-anchor="middle" pointer-events="none" x="0" y="0" font-size="10px" fill="#FFFFFF" font-family="sans-serif"> Speed</text><text text-anchor="middle" pointer-events="none" x="0" y="10" font-size="10px" fill="#FFFFFF" font-family="sans-serif"> Racer</text></g><g class="node" transform="translate(47.6768458383666,-48.66099013999883)"><circle class="outline" cx="0" cy="0" r="25" fill="#57C7E3" stroke="#23b3d7" stroke-width="2px"/><text text-anchor="middle" pointer-events="none" font-family="sans-serif" dy="1.5625" font-size="25" fill="#2A2C34"/><text text-anchor="middle" pointer-events="none" font-family="sans-serif" dy="1.5625" font-size="25" fill="#2A2C34"/><text text-anchor="middle" pointer-events="none" x="0" y="0" font-size="10px" fill="#2A2C34" font-family="sans-serif"> Lilly</text><text text-anchor="middle" pointer-events="none" x="0" y="10" font-size="10px" fill="#2A2C34" font-family="sans-serif"> Wacho…</text></g><g class="node" transform="translate(-60.74054899464914,94.51860399308117)"><circle class="outline" cx="0" cy="0" r="25" fill="#57C7E3" stroke="#23b3d7" stroke-width="2px"/><text text-anchor="middle" pointer-events="none" font-family="sans-serif" dy="1.5625" font-size="25" fill="#2A2C34"/><text text-anchor="middle" pointer-events="none" font-family="sans-serif" dy="1.5625" font-size="25" fill="#2A2C34"/><text text-anchor="middle" pointer-events="none" x="0" y="0" font-size="10px" fill="#2A2C34" font-family="sans-serif"> Nancy</text><text text-anchor="middle" pointer-events="none" x="0" y="10" font-size="10px" fill="#2A2C34" font-family="sans-serif"> Meyers</text></g><g class="node" transform="translate(-29.133613196788506,194.39973148367983)"><circle class="outline" cx="0" cy="0" r="25" fill="#F79767" stroke="#f36924" stroke-width="2px"/><text text-anchor="middle" pointer-events="none" font-family="sans-serif" dy="1.5625" font-size="25" fill="#FFFFFF"/><text text-anchor="middle" pointer-events="none" x="0" y="5" font-size="10px" fill="#FFFFFF" font-family="sans-serif"> Somethi…</text></g></g></svg>