<svg xmlns="http://www.w3.org/2000/svg" width="237.5670166015625" height="246.44647216796875" viewBox="-9.217287063598633 -10.355627059936523 237.5670166015625 246.44647216796875"><title>Neo4j Graph Visualization</title><desc>Created using Neo4j (http://www.neo4j.com/)</desc><g class="layer relationships"><g class="relationship" transform="translate(125.6281368277904 127.55399440405145) rotate(407.5588575558918)"><path class="outline" fill="#A5ABB6" stroke="none" d="M 25 0.5 L 27.60762810532745 0.5 L 27.60762810532745 -0.5 L 25 -0.5 Z M 73.17012810532745 0.5 L 75.7777562106549 0.5 L 75.7777562106549 3.5 L 82.7777562106549 0 L 75.7777562106549 -3.5 L 75.7777562106549 -0.5 L 73.17012810532745 -0.5 Z"/><text text-anchor="middle" pointer-events="none" font-size="8px" fill="#000000" x="50.38887810532745" y="3" font-family="sans-serif">ACTED_IN</text></g><g class="relationship" transform="translate(125.6281368277904 127.55399440405145) rotate(310.761387011872)"><path class="outline" fill="#A5ABB6" stroke="none" d="M 25 0.5 L 30.17486678622913 0.5 L 30.17486678622913 -0.5 L 25 -0.5 Z M 75.73736678622913 0.5 L 80.91223357245826 0.5 L 80.91223357245826 3.5 L 87.91223357245826 0 L 80.91223357245826 -3.5 L 80.91223357245826 -0.5 L 75.73736678622913 -0.5 Z"/><text text-anchor="middle" pointer-events="none" font-size="8px" fill="#000000" x="52.95611678622913" y="3" font-family="sans-serif">ACTED_IN</text></g><g class="relationship" transform="translate(125.6281368277904 127.55399440405145) rotate(254.1295435807852)"><path class="outline" fill="#A5ABB6" stroke="none" d="M 25 0.5 L 30.33150008670558 0.5 L 30.33150008670558 -0.5 L 25 -0.5 Z M 75.89400008670557 0.5 L 81.22550017341116 0.5 L 81.22550017341116 3.5 L 88.22550017341116 0 L 81.22550017341116 -3.5 L 81.22550017341116 -0.5 L 75.89400008670557 -0.5 Z"/><text text-anchor="middle" pointer-events="none" font-size="8px" fill="#000000" x="53.11275008670558" y="3" transform="rotate(180 53.11275008670558 0)" font-family="sans-serif">ACTED_IN</text></g><g class="relationship" transform="translate(125.6281368277904 127.55399440405145) rotate(200.80339883306863)"><path class="outline" fill="#A5ABB6" stroke="none" d="M 25 0.5 L 30.332413226755705 0.5 L 30.332413226755705 -0.5 L 25 -0.5 Z M 75.8949132267557 0.5 L 81.22732645351141 0.5 L 81.22732645351141 3.5 L 88.22732645351141 0 L 81.22732645351141 -3.5 L 81.22732645351141 -0.5 L 75.8949132267557 -0.5 Z"/><text text-anchor="middle" pointer-events="none" font-size="8px" fill="#000000" x="53.113663226755705" y="3" transform="rotate(180 53.113663226755705 0)" font-family="sans-serif">ACTED_IN</text></g><g class="relationship" transform="translate(125.6281368277904 127.55399440405145) rotate(504.1998981175029)"><path class="outline" fill="#A5ABB6" stroke="none" d="M 25 0.5 L 30.180002633835443 0.5 L 30.180002633835443 -0.5 L 25 -0.5 Z M 75.74250263383544 0.5 L 80.92250526767089 0.5 L 80.92250526767089 3.5 L 87.92250526767089 0 L 80.92250526767089 -3.5 L 80.92250526767089 -0.5 L 75.74250263383544 -0.5 Z"/><text text-anchor="middle" pointer-events="none" font-size="8px" fill="#000000" x="52.96125263383544" y="3" transform="rotate(180 52.96125263383544 0)" font-family="sans-serif">ACTED_IN</text></g></g><g class="layer nodes"><g class="node" transform="translate(125.6281368277904,127.55399440405145)"><circle class="outline" cx="0" cy="0" r="25" fill="#57C7E3" stroke="#23b3d7" stroke-width="2px"/><text text-anchor="middle" pointer-events="none" font-family="sans-serif" dy="1.5625" font-size="25" fill="#2A2C34"/><text text-anchor="middle" pointer-events="none" font-family="sans-serif" dy="1.5625" font-size="25" fill="#2A2C34"/><text text-anchor="middle" pointer-events="none" x="0" y="0" font-size="10px" fill="#2A2C34" font-family="sans-serif"> Hugo</text><text text-anchor="middle" pointer-events="none" x="0" y="10" font-size="10px" fill="#2A2C34" font-family="sans-serif"> Weaving</text></g><g class="node" transform="translate(198.3600670322126,207.09084789061086)"><circle class="outline" cx="0" cy="0" r="25" fill="#F79767" stroke="#f36924" stroke-width="2px"/><text text-anchor="middle" pointer-events="none" font-family="sans-serif" dy="1.5625" font-size="25" fill="#FFFFFF"/><text text-anchor="middle" pointer-events="none" font-family="sans-serif" dy="1.5625" font-size="25" fill="#FFFFFF"/><text text-anchor="middle" pointer-events="none" x="0" y="0" font-size="10px" fill="#FFFFFF" font-family="sans-serif"> Cloud</text><text text-anchor="middle" pointer-events="none" x="0" y="10" font-size="10px" fill="#FFFFFF" font-family="sans-serif"> Atlas</text></g><g class="node" transform="translate(199.34969697405998,42.0302897373257)"><circle class="outline" cx="0" cy="0" r="25" fill="#F79767" stroke="#f36924" stroke-width="2px"/><text text-anchor="middle" pointer-events="none" font-family="sans-serif" dy="1.5625" font-size="25" fill="#FFFFFF"/><text text-anchor="middle" pointer-events="none" font-family="sans-serif" dy="1.5625" font-size="25" fill="#FFFFFF"/><text text-anchor="middle" pointer-events="none" x="0" y="0" font-size="10px" fill="#FFFFFF" font-family="sans-serif"> V for</text><text text-anchor="middle" pointer-events="none" x="0" y="10" font-size="10px" fill="#FFFFFF" font-family="sans-serif"> Vendetta</text></g><g class="node" transform="translate(94.66512051366765,18.644373569845545)"><circle class="outline" cx="0" cy="0" r="25" fill="#F79767" stroke="#f36924" stroke-width="2px"/><text text-anchor="middle" pointer-events="none" font-family="sans-serif" dy="1.5625" font-size="25" fill="#FFFFFF"/><text text-anchor="middle" pointer-events="none" font-family="sans-serif" dy="1.5625" font-size="25" fill="#FFFFFF"/><text text-anchor="middle" pointer-events="none" font-family="sans-serif" dy="1.5625" font-size="25" fill="#FFFFFF"/><text text-anchor="middle" pointer-events="none" x="0" y="-5" font-size="10px" fill="#FFFFFF" font-family="sans-serif"> The</text><text text-anchor="middle" pointer-events="none" x="0" y="5" font-size="10px" fill="#FFFFFF" font-family="sans-serif"> Matrix</text><text text-anchor="middle" pointer-events="none" x="0" y="15" font-size="10px" fill="#FFFFFF" font-family="sans-serif"> Revol…</text></g><g class="node" transform="translate(19.782710136298334,87.33990353647094)"><circle class="outline" cx="0" cy="0" r="25" fill="#F79767" stroke="#f36924" stroke-width="2px"/><text text-anchor="middle" pointer-events="none" font-family="sans-serif" dy="1.5625" font-size="25" fill="#FFFFFF"/><text text-anchor="middle" pointer-events="none" font-family="sans-serif" dy="1.5625" font-size="25" fill="#FFFFFF"/><text text-anchor="middle" pointer-events="none" font-family="sans-serif" dy="1.5625" font-size="25" fill="#FFFFFF"/><text text-anchor="middle" pointer-events="none" x="0" y="-5" font-size="10px" fill="#FFFFFF" font-family="sans-serif"> The</text><text text-anchor="middle" pointer-events="none" x="0" y="5" font-size="10px" fill="#FFFFFF" font-family="sans-serif"> Matrix</text><text text-anchor="middle" pointer-events="none" x="0" y="15" font-size="10px" fill="#FFFFFF" font-family="sans-serif"> Reloa…</text></g><g class="node" transform="translate(34.04089591350498,193.60904339832442)"><circle class="outline" cx="0" cy="0" r="25" fill="#F79767" stroke="#f36924" stroke-width="2px"/><text text-anchor="middle" pointer-events="none" font-family="sans-serif" dy="1.5625" font-size="25" fill="#FFFFFF"/><text text-anchor="middle" pointer-events="none" font-family="sans-serif" dy="1.5625" font-size="25" fill="#FFFFFF"/><text text-anchor="middle" pointer-events="none" x="0" y="0" font-size="10px" fill="#FFFFFF" font-family="sans-serif"> The</text><text text-anchor="middle" pointer-events="none" x="0" y="10" font-size="10px" fill="#FFFFFF" font-family="sans-serif"> Matrix</text></g></g></svg>