<svg xmlns="http://www.w3.org/2000/svg" width="159.4060821533203" height="242.7909393310547" viewBox="1.4836673736572266 -21.10146713256836 159.4060821533203 242.7909393310547"><title>Neo4j Graph Visualization</title><desc>Created using Neo4j (http://www.neo4j.com/)</desc><g class="layer relationships"><g class="relationship" transform="translate(131.88973318554696 7.898534011752522) rotate(519.6258450717529)"><path class="outline" fill="#A5ABB6" stroke="none" d="M 21.40063509461097,12.933012701892217 L 21.90063509461097,12.06698729810778 A 59.93372415221482 59.93372415221482 0 0 0 23.467933605817077,12.94084823334039 L 22.994084133477024,13.821454091578374 A 60.93372415221482 60.93372415221482 0 0 1 21.40063509461097,12.933012701892217 Z M 77.38017088298814,15.498401735344125 L 76.96147542218652,14.590275031021356 A 59.93372415221482 59.93372415221482 0 0 0 78.57963486235603,13.814634918891512 L 77.24255103837424,11.129079697406345 L 85.06877768315171,11.142365199848207 L 80.36241329433173,17.395375214205067 L 79.02532947034994,14.709819992719902 A 60.93372415221482 60.93372415221482 0 0 1 77.38017088298814,15.498401735344125"/><text text-anchor="middle" pointer-events="none" font-size="8px" fill="#000000" x="50.00496107862996" y="23.567875773401106" transform="rotate(180 50.00496107862996 20.567875773401106)" font-family="sans-serif">PublicTrans…</text></g><g class="relationship" transform="translate(31.16339447820739 45.3066123694035) rotate(450.36499431382435)"><path class="outline" fill="#A5ABB6" stroke="none" d="M 25 0.5 L 40.18337771164578 0.5 L 40.18337771164578 -0.5 L 25 -0.5 Z M 59.51931521164578 0.5 L 74.70269292329156 0.5 L 74.70269292329156 3.5 L 81.70269292329156 0 L 74.70269292329156 -3.5 L 74.70269292329156 -0.5 L 59.51931521164578 -0.5 Z"/><text text-anchor="middle" pointer-events="none" font-size="8px" fill="#000000" x="49.85134646164578" y="3" transform="rotate(180 49.85134646164578 0)" font-family="sans-serif">trek</text></g><g class="relationship" transform="translate(30.483665306088934 152.00714022814853) rotate(382.2583305866973)"><path class="outline" fill="#A5ABB6" stroke="none" d="M 25 0.5 L 40.53336495052649 0.5 L 40.53336495052649 -0.5 L 25 -0.5 Z M 59.86930245052649 0.5 L 75.40266740105298 0.5 L 75.40266740105298 3.5 L 82.40266740105298 0 L 75.40266740105298 -3.5 L 75.40266740105298 -0.5 L 59.86930245052649 -0.5 Z"/><text text-anchor="middle" pointer-events="none" font-size="8px" fill="#000000" x="50.20133370052649" y="3" font-family="sans-serif">trek</text></g><g class="relationship" transform="translate(131.88973318554696 7.898534011752522) rotate(519.6258450717529)"><path class="outline" fill="#A5ABB6" stroke="none" d="M 25 0.5 L 40.556233514430716 0.5 L 40.556233514430716 -0.5 L 25 -0.5 Z M 59.892171014430716 0.5 L 75.44840452886143 0.5 L 75.44840452886143 3.5 L 82.44840452886143 0 L 75.44840452886143 -3.5 L 75.44840452886143 -0.5 L 59.892171014430716 -0.5 Z"/><text text-anchor="middle" pointer-events="none" font-size="8px" fill="#000000" x="50.224202264430716" y="3" transform="rotate(180 50.224202264430716 0)" font-family="sans-serif">trek</text></g><g class="relationship" transform="translate(131.88973318554696 7.898534011752522) rotate(519.6258450717529)"><path class="outline" fill="#A5ABB6" stroke="none" d="M 21.40063509461097,-12.933012701892217 L 21.90063509461097,-12.06698729810778 A 59.93372415221482 59.93372415221482 0 0 1 39.20150392487501,-18.742923703799896 L 38.99017059918887,-19.720337753962077 A 60.93372415221482 60.93372415221482 0 0 0 21.40063509461097,-12.933012701892217 Z M 61.05104351971747,-20.400565567260827 L 60.900329830758324,-19.411988112551114 A 59.93372415221482 59.93372415221482 0 0 1 78.57963486235603,-13.814634918891512 L 77.24255103837424,-11.129079697406345 L 85.06877768315171,-11.142365199848207 L 80.36241329433173,-17.395375214205067 L 79.02532947034994,-14.709819992719902 A 60.93372415221482 60.93372415221482 0 0 0 61.05104351971747,-20.400565567260827"/><text text-anchor="middle" pointer-events="none" font-size="8px" fill="#000000" x="50.004961078629954" y="-17.567875773401106" transform="rotate(180 50.004961078629954 -20.567875773401106)" font-family="sans-serif">road</text></g></g><g class="layer nodes"><g class="node" transform="translate(131.88973318554696,7.898534011752522)"><circle class="outline" cx="0" cy="0" r="25" fill="#F79767" stroke="#f36924" stroke-width="2px"/><text text-anchor="middle" pointer-events="none" font-family="sans-serif" dy="1.5625" font-size="25" fill="#FFFFFF"/><text text-anchor="middle" pointer-events="none" x="0" y="5" font-size="10px" fill="#FFFFFF" font-family="sans-serif"> Darjeeling</text></g><g class="node" transform="translate(129.88327022197572,192.68946449098806)"><circle class="outline" cx="0" cy="0" r="25" fill="#57C7E3" stroke="#23b3d7" stroke-width="2px"/><text text-anchor="middle" pointer-events="none" font-family="sans-serif" dy="1.5625" font-size="25" fill="#2A2C34"/><text text-anchor="middle" pointer-events="none" x="0" y="5" font-size="10px" fill="#2A2C34" font-family="sans-serif"> Sandak…</text></g><g class="node" transform="translate(31.16339447820739,45.3066123694035)"><circle class="outline" cx="0" cy="0" r="25" fill="#F79767" stroke="#f36924" stroke-width="2px"/><text text-anchor="middle" pointer-events="none" font-family="sans-serif" dy="1.5625" font-size="25" fill="#FFFFFF"/><text text-anchor="middle" pointer-events="none" x="0" y="5" font-size="10px" fill="#FFFFFF" font-family="sans-serif"> Rimbik</text></g><g class="node" transform="translate(30.483665306088934,152.00714022814853)"><circle class="outline" cx="0" cy="0" r="25" fill="#F16667" stroke="#eb2728" stroke-width="2px"/><text text-anchor="middle" pointer-events="none" font-family="sans-serif" dy="1.5625" font-size="25" fill="#FFFFFF"/><text text-anchor="middle" pointer-events="none" x="0" y="5" font-size="10px" fill="#FFFFFF" font-family="sans-serif"> BhikeBh…</text></g></g></svg>