<svg xmlns="http://www.w3.org/2000/svg" width="393.361328125" height="412.01031494140625" viewBox="-95.52699279785156 -115.90593719482422 393.361328125 412.01031494140625"><title>Neo4j Graph Visualization</title><desc>Created using Neo4j (http://www.neo4j.com/)</desc><g class="layer relationships"><g class="relationship" transform="translate(98.66648573203881 -86.9059399199367) rotate(385.213866750211)"><path class="outline" fill="#A5ABB6" stroke="none" d="M 24.018736134675446,-6.953439040707552 L 24.277555179777966,-5.987513214418485 A 107.79901956176931 107.79901956176931 0 0 1 40.87452469061695,-9.066414410004185 L 40.76966780192652,-10.060901731639902 A 108.79901956176931 108.79901956176931 0 0 0 24.018736134675446,-6.953439040707552 Z M 60.16667075350619,-10.366991104842086 L 60.09324475849318,-9.369690436409357 A 107.79901956176931 107.79901956176931 0 0 1 76.77909791740498,-6.816000189897315 L 76.09445986972129,-3.895166277525051 L 83.70848338755421,-5.705317064030746 L 77.69194864764991,-10.710445406393665 L 77.00731059996622,-7.789611494021402 A 108.79901956176931 108.79901956176931 0 0 0 60.16667075350619,-10.366991104842086"/><text text-anchor="middle" pointer-events="none" font-size="8px" fill="#000000" x="50.46922264446331" y="-7.147194156684051" font-family="sans-serif">trek</text></g><g class="relationship" transform="translate(196.4207951897725 -40.87735299240594) rotate(410.4372789513504)"><path class="outline" fill="#A5ABB6" stroke="none" d="M 21.40063509461097,-12.933012701892217 L 21.90063509461097,-12.06698729810778 A 66.38212209502865 66.38212209502865 0 0 1 43.61441556673384,-19.960782707116593 L 43.44151840386578,-20.94572258907496 A 67.38212209502865 67.38212209502865 0 0 0 21.40063509461097,-12.933012701892217 Z M 62.845951397901025,-21.512842967399067 L 62.730872575586105,-20.519486604025573 A 66.38212209502865 66.38212209502865 0 0 1 84.86860938054421,-13.90731014651658 L 83.52290458991736,-11.226064425497349 L 91.3491335280269,-11.214206588557124 L 86.66288243471335,-17.482304441208885 L 85.3171776440865,-14.801058720189655 A 67.38212209502865 67.38212209502865 0 0 0 62.845951397901025,-21.512842967399067"/><text text-anchor="middle" pointer-events="none" font-size="8px" fill="#000000" x="53.13781141986915" y="-18.431958955686483" font-family="sans-serif">trek</text></g><g class="relationship" transform="translate(268.8343312461536 46.771625624397785) rotate(498.9346301294761)"><path class="outline" fill="#A5ABB6" stroke="none" d="M 21.40063509461097,12.933012701892217 L 21.90063509461097,12.06698729810778 A 66.72512170690617 66.72512170690617 0 0 0 43.78040487235737,20.010990532294286 L 43.60831389999249,20.996071593542794 A 67.72512170690617 67.72512170690617 0 0 1 21.40063509461097,12.933012701892217 Z M 63.01274683020007,21.561620503961578 L 62.898320297078826,20.5681887908993 A 66.72512170690617 66.72512170690617 0 0 0 85.20361846103154,13.911974647024559 L 83.85747977681231,11.230946739141366 L 91.6837066934622,11.217822368493561 L 86.99847003999051,17.486678524202148 L 85.65233135577128,14.805650616318955 A 67.72512170690617 67.72512170690617 0 0 1 63.01274683020007,21.561620503961578"/><text text-anchor="middle" pointer-events="none" font-size="8px" fill="#000000" x="53.30472815523728" y="24.477924483847602" transform="rotate(180 53.30472815523728 21.477924483847602)" font-family="sans-serif">trek</text></g><g class="relationship" transform="translate(182.86351941998907 121.67728843236637) rotate(474.21849802100905)"><path class="outline" fill="#A5ABB6" stroke="none" d="M 25 0.5 L 47.60005625552969 0.5 L 47.60005625552969 -0.5 L 25 -0.5 Z M 66.9359937555297 0.5 L 89.53605001105937 0.5 L 89.53605001105937 3.5 L 96.53605001105937 0 L 89.53605001105937 -3.5 L 89.53605001105937 -0.5 L 66.9359937555297 -0.5 Z"/><text text-anchor="middle" pointer-events="none" font-size="8px" fill="#000000" x="57.26802500552969" y="3" transform="rotate(180 57.26802500552969 0)" font-family="sans-serif">trek</text></g><g class="relationship" transform="translate(268.8343312461536 46.771625624397785) rotate(498.9346301294761)"><path class="outline" fill="#A5ABB6" stroke="none" d="M 25 0.5 L 42.50694358791107 0.5 L 42.50694358791107 -0.5 L 25 -0.5 Z M 64.51866233791107 0.5 L 82.02560592582213 0.5 L 82.02560592582213 3.5 L 89.02560592582213 0 L 82.02560592582213 -3.5 L 82.02560592582213 -0.5 L 64.51866233791107 -0.5 Z"/><text text-anchor="middle" pointer-events="none" font-size="8px" fill="#000000" x="53.51280296291107" y="3" transform="rotate(180 53.51280296291107 0)" font-family="sans-serif">road</text></g><g class="relationship" transform="translate(268.8343312461536 46.771625624397785) rotate(498.9346301294761)"><path class="outline" fill="#A5ABB6" stroke="none" d="M 21.40063509461097,-12.933012701892217 L 21.90063509461097,-12.06698729810778 A 66.72512170690617 66.72512170690617 0 0 1 30.84047676507065,-16.376205011078035 L 30.474456912903555,-17.306812053722552 A 67.72512170690617 67.72512170690617 0 0 0 21.40063509461097,-12.933012701892217 Z M 76.3391765862987,-18.64355517480452 L 76.02797772674633,-17.693210358533435 A 66.72512170690617 66.72512170690617 0 0 1 85.20361846103154,-13.911974647024559 L 83.85747977681231,-11.230946739141366 L 91.6837066934622,-11.217822368493561 L 86.99847003999051,-17.486678524202148 L 85.65233135577128,-14.805650616318955 A 67.72512170690617 67.72512170690617 0 0 0 76.3391765862987,-18.64355517480452"/><text text-anchor="middle" pointer-events="none" font-size="8px" fill="#000000" x="53.30472815523728" y="-18.477924483847602" transform="rotate(180 53.30472815523728 -21.477924483847602)" font-family="sans-serif">twowheeler</text></g><g class="relationship" transform="translate(196.4207951897725 -40.87735299240594) rotate(410.4372789513504)"><path class="outline" fill="#A5ABB6" stroke="none" d="M 25 0.5 L 42.34056455992692 0.5 L 42.34056455992692 -0.5 L 25 -0.5 Z M 64.35228330992692 0.5 L 81.69284786985384 0.5 L 81.69284786985384 3.5 L 88.69284786985384 0 L 81.69284786985384 -3.5 L 81.69284786985384 -0.5 L 64.35228330992692 -0.5 Z"/><text text-anchor="middle" pointer-events="none" font-size="8px" fill="#000000" x="53.34642393492692" y="3" font-family="sans-serif">road</text></g><g class="relationship" transform="translate(196.4207951897725 -40.87735299240594) rotate(410.4372789513504)"><path class="outline" fill="#A5ABB6" stroke="none" d="M 21.40063509461097,12.933012701892217 L 21.90063509461097,12.06698729810778 A 66.38212209502865 66.38212209502865 0 0 0 30.680077429610183,16.308918646409005 L 30.312333556077956,17.238845763703424 A 67.38212209502865 67.38212209502865 0 0 1 21.40063509461097,12.933012701892217 Z M 76.16921794962217,18.57907423799203 L 75.85641210213385,17.629257149402285 A 66.38212209502865 66.38212209502865 0 0 0 84.86860938054421,13.90731014651658 L 83.52290458991736,11.226064425497349 L 91.3491335280269,11.214206588557124 L 86.66288243471335,17.482304441208885 L 85.3171776440865,14.801058720189655 A 67.38212209502865 67.38212209502865 0 0 1 76.16921794962217,18.57907423799203"/><text text-anchor="middle" pointer-events="none" font-size="8px" fill="#000000" x="53.13781141986915" y="24.431958955686483" font-family="sans-serif">twowheeler</text></g><g class="relationship" transform="translate(98.66648573203881 -86.9059399199367) rotate(385.213866750211)"><path class="outline" fill="#A5ABB6" stroke="none" d="M 24.018736134675446,6.953439040707552 L 24.277555179777966,5.987513214418485 A 107.79901956176931 107.79901956176931 0 0 0 39.5510484160734,8.918598269335206 L 39.4339142703177,9.911714371257887 A 108.79901956176931 108.79901956176931 0 0 1 24.018736134675446,6.953439040707552 Z M 61.50646645544424,10.260024555062216 L 61.420726050730345,9.263707043924583 A 107.79901956176931 107.79901956176931 0 0 0 76.77909791740498,6.816000189897315 L 76.09445986972129,3.895166277525051 L 83.70848338755421,5.705317064030746 L 77.69194864764991,10.710445406393665 L 77.00731059996622,7.789611494021402 A 108.79901956176931 108.79901956176931 0 0 1 61.50646645544424,10.260024555062216"/><text text-anchor="middle" pointer-events="none" font-size="8px" fill="#000000" x="50.469222644463365" y="13.147194156684051" font-family="sans-serif">road</text></g><g class="relationship" transform="translate(98.66648573203881 -86.9059399199367) rotate(448.1562230999872)"><path class="outline" fill="#A5ABB6" stroke="none" d="M 21.40063509461097,12.933012701892217 L 21.90063509461097,12.06698729810778 A 64.34514826762911 64.34514826762911 0 0 0 22.905317604380937,12.635088240429965 L 22.420931563425544,13.509942607354859 A 65.34514826762911 65.34514826762911 0 0 1 21.40063509461097,12.933012701892217 Z M 82.27500830036557,15.288590134482604 L 81.8434261581622,14.386516493070133 A 64.34514826762911 64.34514826762911 0 0 0 82.88006987234785,13.879076411932987 L 81.53699142341304,11.19651415170362 L 89.36322822103882,11.192320407790014 L 84.67084113759424,17.45582609223881 L 83.32776268865943,14.773263832009443 A 65.34514826762911 65.34514826762911 0 0 1 82.27500830036557,15.288590134482604"/><text text-anchor="middle" pointer-events="none" font-size="8px" fill="#000000" x="52.14709529004157" y="24.158990287354" font-family="sans-serif">PublicTransport</text></g><g class="relationship" transform="translate(102.26094524135257 24.754133998382276) rotate(410.25264270743287)"><path class="outline" fill="#A5ABB6" stroke="none" d="M 25 0.5 L 49.861533924653344 0.5 L 49.861533924653344 -0.5 L 25 -0.5 Z M 69.19747142465334 0.5 L 94.05900534930669 0.5 L 94.05900534930669 3.5 L 101.05900534930669 0 L 94.05900534930669 -3.5 L 94.05900534930669 -0.5 L 69.19747142465334 -0.5 Z"/><text text-anchor="middle" pointer-events="none" font-size="8px" fill="#000000" x="59.529502674653344" y="3" font-family="sans-serif">trek</text></g><g class="relationship" transform="translate(102.26094524135257 24.754133998382276) rotate(517.8522739471175)"><path class="outline" fill="#A5ABB6" stroke="none" d="M 24.018736134675446,-6.953439040707552 L 24.277555179777966,-5.987513214418485 A 138.63969019197856 138.63969019197856 0 0 1 48.61291271145743,-10.22982733103703 L 48.529623181012525,-11.22635272164095 A 139.63969019197856 139.63969019197856 0 0 0 24.018736134675446,-6.953439040707552 Z M 67.91755969308565,-11.49590559783772 L 67.86200663167564,-10.497449861528906 A 138.63969019197856 138.63969019197856 0 0 1 92.30589812285947,-6.933319669468018 L 91.61030184729572,-4.015076050196002 L 99.23106594708814,-5.79663562969793 L 93.23335982361115,-10.824311161830707 L 92.5377635480474,-7.90606754255869 A 139.63969019197856 139.63969019197856 0 0 0 67.91755969308565,-11.49590559783772"/><text text-anchor="middle" pointer-events="none" font-size="8px" fill="#000000" x="58.225858045769506" y="-8.198100418999502" transform="rotate(180 58.225858045769506 -11.198100418999502)" font-family="sans-serif">trek</text></g><g class="relationship" transform="translate(-12.172688823230228 71.33188916511952) rotate(423.4467883088662)"><path class="outline" fill="#A5ABB6" stroke="none" d="M 24.018736134675446,-6.953439040707552 L 24.277555179777966,-5.987513214418485 A 113.1368705738585 113.1368705738585 0 0 1 42.20867612523523,-9.27171111222495 L 42.108347595687064,-10.266665476082252 A 114.1368705738585 114.1368705738585 0 0 0 24.018736134675446,-6.953439040707552 Z M 61.50363632045116,-10.565761931392757 L 61.4340347596854,-9.568187060649223 A 113.1368705738585 113.1368705738585 0 0 1 79.45789706208348,-6.8384541255865425 L 78.77116165187293,-3.9181126256309367 L 86.38648313034831,-5.722795085087874 L 80.37354427569754,-10.732242792194016 L 79.686808865487,-7.81190129223841 A 114.1368705738585 114.1368705738585 0 0 0 61.50363632045116,-10.565761931392757"/><text text-anchor="middle" pointer-events="none" font-size="8px" fill="#000000" x="51.80733613240485" y="-7.329049015306012" font-family="sans-serif">trek</text></g><g class="relationship" transform="translate(37.32352597222072 170.37547889701224) rotate(393.00144126626947)"><path class="outline" fill="#A5ABB6" stroke="none" d="M 24.018736134675446,6.953439040707552 L 24.277555179777966,5.987513214418485 A 119.85090403885629 119.85090403885629 0 0 0 43.89016800458782,9.527251130708393 L 43.794990719070626,10.522711468603163 A 120.85090403885629 120.85090403885629 0 0 1 24.018736134675446,6.953439040707552 Z M 63.18820472082669,10.813438898371018 L 63.12290977689726,9.815572890182906 A 119.85090403885629 119.85090403885629 0 0 0 82.83281521479589,6.8653264664058495 L 82.14356976309499,3.9455763559837895 L 89.7604397143975,5.743712097507443 L 83.75180915039708,10.758326613635264 L 83.06256369869618,7.838576503213203 A 120.85090403885629 120.85090403885629 0 0 1 63.18820472082669,10.813438898371018"/><text text-anchor="middle" pointer-events="none" font-size="8px" fill="#000000" x="53.49325069020913" y="13.55781243316649" font-family="sans-serif">trek</text></g><g class="relationship" transform="translate(37.32352597222072 170.37547889701224) rotate(393.00144126626947)"><path class="outline" fill="#A5ABB6" stroke="none" d="M 24.018736134675446,-6.953439040707552 L 24.277555179777966,-5.987513214418485 A 119.85090403885629 119.85090403885629 0 0 1 30.544217170557005,-7.487332445172541 L 30.337685273732877,-8.465772313327065 A 120.85090403885629 120.85090403885629 0 0 0 24.018736134675446,-6.953439040707552 Z M 76.70112093642203,-9.16081556320816 L 76.52401122103461,-8.176624449290046 A 119.85090403885629 119.85090403885629 0 0 1 82.83281521479589,-6.8653264664058495 L 82.14356976309499,-3.9455763559837895 L 89.7604397143975,-5.743712097507443 L 83.75180915039708,-10.758326613635264 L 83.06256369869618,-7.838576503213203 A 120.85090403885629 120.85090403885629 0 0 0 76.70112093642203,-9.16081556320816"/><text text-anchor="middle" pointer-events="none" font-size="8px" fill="#000000" x="53.49325069020911" y="-7.5578124331664895" font-family="sans-serif">twowheeler</text></g><g class="relationship" transform="translate(-12.172688823230228 71.33188916511952) rotate(423.4467883088662)"><path class="outline" fill="#A5ABB6" stroke="none" d="M 24.018736134675446,6.953439040707552 L 24.277555179777966,5.987513214418485 A 113.1368705738585 113.1368705738585 0 0 0 28.884701952529724,7.119021663818643 L 28.666604793664494,8.094948725281185 A 114.1368705738585 114.1368705738585 0 0 1 24.018736134675446,6.953439040707552 Z M 75.00595202757907,8.809551879467222 L 74.81805113339685,7.827363886277766 A 113.1368705738585 113.1368705738585 0 0 0 79.45789706208348,6.8384541255865425 L 78.77116165187293,3.9181126256309367 L 86.38648313034831,5.722795085087874 L 80.37354427569754,10.732242792194016 L 79.686808865487,7.81190129223841 A 114.1368705738585 114.1368705738585 0 0 1 75.00595202757907,8.809551879467222"/><text text-anchor="middle" pointer-events="none" font-size="8px" fill="#000000" x="51.807336132404885" y="13.329049015306012" font-family="sans-serif">twowheeler</text></g><g class="relationship" transform="translate(102.26094524135257 24.754133998382276) rotate(517.8522739471175)"><path class="outline" fill="#A5ABB6" stroke="none" d="M 24.018736134675446,6.953439040707552 L 24.277555179777966,5.987513214418485 A 138.63969019197856 138.63969019197856 0 0 0 35.22031809533498,8.44989156880925 L 35.04042856096928,9.43357838656462 A 139.63969019197856 139.63969019197856 0 0 1 24.018736134675446,6.953439040707552 Z M 81.45138117546998,10.078835593616077 L 81.29890852433745,9.090527903341126 A 138.63969019197856 138.63969019197856 0 0 0 92.30589812285947,6.933319669468018 L 91.61030184729572,4.015076050196002 L 99.23106594708814,5.79663562969793 L 93.23335982361115,10.824311161830707 L 92.5377635480474,7.90606754255869 A 139.63969019197856 139.63969019197856 0 0 1 81.45138117546998,10.078835593616077"/><text text-anchor="middle" pointer-events="none" font-size="8px" fill="#000000" x="58.225858045769506" y="14.198100418999502" transform="rotate(180 58.225858045769506 11.198100418999502)" font-family="sans-serif">twowheeler</text></g><g class="relationship" transform="translate(98.66648573203881 -86.9059399199367) rotate(448.1562230999872)"><path class="outline" fill="#A5ABB6" stroke="none" d="M 25 0.5 L 41.35309748647512 0.5 L 41.35309748647512 -0.5 L 25 -0.5 Z M 63.36481623647512 0.5 L 79.71791372295024 0.5 L 79.71791372295024 3.5 L 86.71791372295024 0 L 79.71791372295024 -3.5 L 79.71791372295024 -0.5 L 63.36481623647512 -0.5 Z"/><text text-anchor="middle" pointer-events="none" font-size="8px" fill="#000000" x="52.35895686147512" y="3" font-family="sans-serif">road</text></g><g class="relationship" transform="translate(98.66648573203881 -86.9059399199367) rotate(448.1562230999872)"><path class="outline" fill="#A5ABB6" stroke="none" d="M 21.40063509461097,-12.933012701892217 L 21.90063509461097,-12.06698729810778 A 64.34514826762911 64.34514826762911 0 0 1 42.629447478348524,-19.661791165440867 L 42.45159783376493,-20.64584883850759 A 65.34514826762911 65.34514826762911 0 0 0 21.40063509461097,-12.933012701892217 Z M 61.855954882279754,-21.2224764228162 L 61.73685276283886,-20.229594413136965 A 64.34514826762911 64.34514826762911 0 0 1 82.88006987234785,-13.879076411932987 L 81.53699142341304,-11.19651415170362 L 89.36322822103882,-11.192320407790014 L 84.67084113759424,-17.45582609223881 L 83.32776268865943,-14.773263832009443 A 65.34514826762911 65.34514826762911 0 0 0 61.855954882279754,-21.2224764228162"/><text text-anchor="middle" pointer-events="none" font-size="8px" fill="#000000" x="52.14709529004158" y="-18.158990287354" font-family="sans-serif">trek</text></g><g class="relationship" transform="translate(102.26094524135257 24.754133998382276) rotate(325.1226547130464)"><path class="outline" fill="#A5ABB6" stroke="none" d="M 25 0.5 L 44.22011674457578 0.5 L 44.22011674457578 -0.5 L 25 -0.5 Z M 63.55605424457578 0.5 L 82.77617098915157 0.5 L 82.77617098915157 3.5 L 89.77617098915157 0 L 82.77617098915157 -3.5 L 82.77617098915157 -0.5 L 63.55605424457578 -0.5 Z"/><text text-anchor="middle" pointer-events="none" font-size="8px" fill="#000000" x="53.88808549457578" y="3" font-family="sans-serif">trek</text></g><g class="relationship" transform="translate(-12.172688823230228 71.33188916511952) rotate(477.3133369148846)"><path class="outline" fill="#A5ABB6" stroke="none" d="M 24.018736134675446,-6.953439040707552 L 24.277555179777966,-5.987513214418485 A 128.53107009907748 128.53107009907748 0 0 1 46.06909016403378,-9.853867839751814 L 45.979814054872406,-10.849874755557607 A 129.53107009907748 129.53107009907748 0 0 0 24.018736134675446,-6.953439040707552 Z M 65.37049205975318,-11.130432467498792 L 65.3100691199524,-10.13225960253709 A 128.53107009907748 128.53107009907748 0 0 1 87.20434096078145,-6.8979813803117604 L 86.5120453875222,-3.978952973590502 L 94.13078983867426,-5.769129777160394 L 88.12740172512711,-10.790019255940106 L 87.43510615186787,-7.870990849218847 A 129.53107009907748 129.53107009907748 0 0 0 65.37049205975318,-11.130432467498792"/><text text-anchor="middle" pointer-events="none" font-size="8px" fill="#000000" x="55.677128816889514" y="-7.853599469058992" transform="rotate(180 55.677128816889514 -10.853599469058992)" font-family="sans-serif">trek</text></g><g class="relationship" transform="translate(-66.52699333456304 176.5813063121655) rotate(356.5802252155311)"><path class="outline" fill="#A5ABB6" stroke="none" d="M 21.40063509461097,12.933012701892217 L 21.90063509461097,12.06698729810778 A 56.399286496557956 56.399286496557956 0 0 0 38.801911963003796,18.47978056680865 L 38.60158378366458,19.459509417339568 A 57.399286496557956 57.399286496557956 0 0 1 21.40063509461097,12.933012701892217 Z M 58.00391107731207,20.076306944156144 L 57.86621541562651,19.085832358539236 A 56.399286496557956 56.399286496557956 0 0 0 75.14067818797922,13.759481523702494 L 73.80872517577484,11.07137788483741 L 81.63491218069846,11.099608435036465 L 76.91661553758505,17.343619708855936 L 75.58466252538066,14.655516069990853 A 57.399286496557956 57.399286496557956 0 0 1 58.00391107731207,20.076306944156144"/><text text-anchor="middle" pointer-events="none" font-size="8px" fill="#000000" x="48.2923705346082" y="23.094329609830623" font-family="sans-serif">trek</text></g><g class="relationship" transform="translate(-66.52699333456304 176.5813063121655) rotate(356.5802252155311)"><path class="outline" fill="#A5ABB6" stroke="none" d="M 25 0.5 L 37.51202854395375 0.5 L 37.51202854395375 -0.5 L 25 -0.5 Z M 59.52374729395375 0.5 L 72.0357758379075 0.5 L 72.0357758379075 3.5 L 79.0357758379075 0 L 72.0357758379075 -3.5 L 72.0357758379075 -0.5 L 59.52374729395375 -0.5 Z"/><text text-anchor="middle" pointer-events="none" font-size="8px" fill="#000000" x="48.51788791895375" y="3" font-family="sans-serif">road</text></g><g class="relationship" transform="translate(-66.52699333456304 176.5813063121655) rotate(356.5802252155311)"><path class="outline" fill="#A5ABB6" stroke="none" d="M 21.40063509461097,-12.933012701892217 L 21.90063509461097,-12.06698729810778 A 56.399286496557956 56.399286496557956 0 0 1 26.073159171083876,-14.249031491720935 L 25.6471410303531,-15.153746111790873 A 57.399286496557956 57.399286496557956 0 0 0 21.40063509461097,-12.933012701892217 Z M 71.20567980680082,-16.602046288228472 L 70.83798531524688,-15.672099644124152 A 56.399286496557956 56.399286496557956 0 0 1 75.14067818797922,-13.759481523702494 L 73.80872517577484,-11.07137788483741 L 81.63491218069846,-11.099608435036465 L 76.91661553758505,-17.343619708855936 L 75.58466252538066,-14.655516069990853 A 57.399286496557956 57.399286496557956 0 0 0 71.20567980680082,-16.602046288228472"/><text text-anchor="middle" pointer-events="none" font-size="8px" fill="#000000" x="48.2923705346082" y="-17.094329609830623" font-family="sans-serif">twowheeler</text></g><g class="relationship" transform="translate(-12.172688823230228 71.33188916511952) rotate(477.3133369148846)"><path class="outline" fill="#A5ABB6" stroke="none" d="M 24.018736134675446,6.953439040707552 L 24.277555179777966,5.987513214418485 A 128.53107009907748 128.53107009907748 0 0 0 32.699275781752874,7.943064691292193 L 32.50597957556769,8.924205138259097 A 129.53107009907748 129.53107009907748 0 0 1 24.018736134675446,6.953439040707552 Z M 78.89439858516921,9.595384799673027 L 78.7295689843637,8.60906274136839 A 128.53107009907748 128.53107009907748 0 0 0 87.20434096078145,6.8979813803117604 L 86.5120453875222,3.978952973590502 L 94.13078983867426,5.769129777160394 L 88.12740172512711,10.790019255940106 L 87.43510615186787,7.870990849218847 A 129.53107009907748 129.53107009907748 0 0 1 78.89439858516921,9.595384799673027"/><text text-anchor="middle" pointer-events="none" font-size="8px" fill="#000000" x="55.67712881688953" y="13.853599469058992" transform="rotate(180 55.67712881688953 10.853599469058992)" font-family="sans-serif">twowheeler</text></g><g class="relationship" transform="translate(-66.52699333456304 176.5813063121655) rotate(407.29125036322995)"><path class="outline" fill="#A5ABB6" stroke="none" d="M 25 0.5 L 48.428192452529544 0.5 L 48.428192452529544 -0.5 L 25 -0.5 Z M 67.76412995252954 0.5 L 91.19232240505909 0.5 L 91.19232240505909 3.5 L 98.19232240505909 0 L 91.19232240505909 -3.5 L 91.19232240505909 -0.5 L 67.76412995252954 -0.5 Z"/><text text-anchor="middle" pointer-events="none" font-size="8px" fill="#000000" x="58.096161202529544" y="3" font-family="sans-serif">trek</text></g><g class="relationship" transform="translate(17.030896108501075 267.10438299083734) rotate(343.39381183994806)"><path class="outline" fill="#A5ABB6" stroke="none" d="M 25 0.5 L 47.344090415248985 0.5 L 47.344090415248985 -0.5 L 25 -0.5 Z M 66.68002791524898 0.5 L 89.02411833049797 0.5 L 89.02411833049797 3.5 L 96.02411833049797 0 L 89.02411833049797 -3.5 L 89.02411833049797 -0.5 L 66.68002791524898 -0.5 Z"/><text text-anchor="middle" pointer-events="none" font-size="8px" fill="#000000" x="57.012059165248985" y="3" font-family="sans-serif">trek</text></g></g><g class="layer nodes"><g class="node" transform="translate(98.66648573203881,-86.9059399199367)"><circle class="outline" cx="0" cy="0" r="25" fill="#F79767" stroke="#f36924" stroke-width="2px"/><text text-anchor="middle" pointer-events="none" font-family="sans-serif" dy="1.5625" font-size="25" fill="#FFFFFF"/><text text-anchor="middle" pointer-events="none" x="0" y="5" font-size="10px" fill="#FFFFFF" font-family="sans-serif"> Darjeeling</text></g><g class="node" transform="translate(133.00730583291656,232.516674117469)"><circle class="outline" cx="0" cy="0" r="25" fill="#57C7E3" stroke="#23b3d7" stroke-width="2px"/><text text-anchor="middle" pointer-events="none" font-family="sans-serif" dy="1.5625" font-size="25" fill="#2A2C34"/><text text-anchor="middle" pointer-events="none" x="0" y="5" font-size="10px" fill="#2A2C34" font-family="sans-serif"> Sandak…</text></g><g class="node" transform="translate(196.4207951897725,-40.87735299240594)"><circle class="outline" cx="0" cy="0" r="25" fill="#F16667" stroke="#eb2728" stroke-width="2px"/><text text-anchor="middle" pointer-events="none" font-family="sans-serif" dy="1.5625" font-size="25" fill="#FFFFFF"/><text text-anchor="middle" pointer-events="none" x="0" y="5" font-size="10px" fill="#FFFFFF" font-family="sans-serif"> Tumbling</text></g><g class="node" transform="translate(268.8343312461536,46.771625624397785)"><circle class="outline" cx="0" cy="0" r="25" fill="#F16667" stroke="#eb2728" stroke-width="2px"/><text text-anchor="middle" pointer-events="none" font-family="sans-serif" dy="1.5625" font-size="25" fill="#FFFFFF"/><text text-anchor="middle" pointer-events="none" x="0" y="5" font-size="10px" fill="#FFFFFF" font-family="sans-serif"> Gairibus</text></g><g class="node" transform="translate(182.86351941998907,121.67728843236637)"><circle class="outline" cx="0" cy="0" r="25" fill="#F16667" stroke="#eb2728" stroke-width="2px"/><text text-anchor="middle" pointer-events="none" font-family="sans-serif" dy="1.5625" font-size="25" fill="#FFFFFF"/><text text-anchor="middle" pointer-events="none" x="0" y="5" font-size="10px" fill="#FFFFFF" font-family="sans-serif"> BhikeBh…</text></g><g class="node" transform="translate(102.26094524135257,24.754133998382276)"><circle class="outline" cx="0" cy="0" r="25" fill="#F79767" stroke="#f36924" stroke-width="2px"/><text text-anchor="middle" pointer-events="none" font-family="sans-serif" dy="1.5625" font-size="25" fill="#FFFFFF"/><text text-anchor="middle" pointer-events="none" x="0" y="5" font-size="10px" fill="#FFFFFF" font-family="sans-serif"> Rimbik</text></g><g class="node" transform="translate(-12.172688823230228,71.33188916511952)"><circle class="outline" cx="0" cy="0" r="25" fill="#F16667" stroke="#eb2728" stroke-width="2px"/><text text-anchor="middle" pointer-events="none" font-family="sans-serif" dy="1.5625" font-size="25" fill="#FFFFFF"/><text text-anchor="middle" pointer-events="none" x="0" y="5" font-size="10px" fill="#FFFFFF" font-family="sans-serif"> Sirikhola</text></g><g class="node" transform="translate(37.32352597222072,170.37547889701224)"><circle class="outline" cx="0" cy="0" r="25" fill="#F16667" stroke="#eb2728" stroke-width="2px"/><text text-anchor="middle" pointer-events="none" font-family="sans-serif" dy="1.5625" font-size="25" fill="#FFFFFF"/><text text-anchor="middle" pointer-events="none" x="0" y="5" font-size="10px" fill="#FFFFFF" font-family="sans-serif"> Gurdum</text></g><g class="node" transform="translate(-66.52699333456304,176.5813063121655)"><circle class="outline" cx="0" cy="0" r="25" fill="#F16667" stroke="#eb2728" stroke-width="2px"/><text text-anchor="middle" pointer-events="none" font-family="sans-serif" dy="1.5625" font-size="25" fill="#FFFFFF"/><text text-anchor="middle" pointer-events="none" x="0" y="5" font-size="10px" fill="#FFFFFF" font-family="sans-serif"> Rammam</text></g><g class="node" transform="translate(17.030896108501075,267.10438299083734)"><circle class="outline" cx="0" cy="0" r="25" fill="#57C7E3" stroke="#23b3d7" stroke-width="2px"/><text text-anchor="middle" pointer-events="none" font-family="sans-serif" dy="1.5625" font-size="25" fill="#2A2C34"/><text text-anchor="middle" pointer-events="none" x="0" y="5" font-size="10px" fill="#2A2C34" font-family="sans-serif"> Sabargr…</text></g></g></svg>